Optional Greek Subtitles

Use DivX7 player to turn on the subtitles on PC.
Use TV control for your television.

-------------------------------------------------------------------------------

Inglourious Basterds (2009) 
http://www.imdb.com/title/tt0361748/

In German-occupied France, Shosanna Dreyfus witnesses the execution of her family at the hand of Nazi Colonel Hans Landa. Shosanna narrowly escapes and flees to Paris, where she forges a new identity as the owner and operator of a cinema. Elsewhere in Europe, Lieutenant Aldo Raine organizes a group of Jewish soldiers to engage in targeted acts of retribution. Known to their enemy as "The Basterds," Raine's squad joins German actress and undercover agent Bridget Von Hammersmark on a mission to take down the leaders of The Third Reich. Fates converge under a cinema marquee, where Shosanna is poised to carry out a revenge plan of her own... 

STARRING
Brad Pitt, Eli Roth, Mike Myers, Michael Fassbenderr, Diane Kruger, Daniel Bruhl, Til Schweiger, Melanie Laurent, B.J. Novak and Samm Levine 


DIRECTED BY
Quentin Tarantino

---------------------------------------------------------------------------------

Format                           : DivX
Format/Info                      : Hack of AVI
File size                        : 1.30 GiB
Duration                         : 2h 28mn
Overall bit rate                 : 1 253 Kbps

Video
ID                               : 0
Format                           : MPEG-4 Visual
Format profile                   : AdvancedSimple@L5
Format settings, BVOP            : Yes
Format settings, QPel            : No
Format settings, GMC             : No warppoints
Format settings, Matrix          : Default (H.263)
Codec ID                         : XVID
Codec ID/Hint                    : XviD
Duration                         : 2h 28mn
Bit rate                         : 1 119 Kbps
Width                            : 704 pixels
Height                           : 320 pixels
Display aspect ratio             : 2.2:1
Frame rate                       : 25.000 fps
Resolution                       : 24 bits
Colorimetry                      : 4:2:0
Scan type                        : Progressive
Bits/(Pixel*Frame)               : 0.199
Stream size                      : 1.16 GiB (89%)
Title                            : Video
Writing library                  : XviD 1.2.1 (UTC 2008-12-04)

Audio
ID                               : 1
Format                           : MPEG Audio
Format version                   : Version 1
Format profile                   : Layer 3
Codec ID                         : 55
Codec ID/Hint                    : MP3
Duration                         : 2h 28mn
Bit rate mode                    : Variable
Bit rate                         : 120 Kbps
Nominal bit rate                 : 128 Kbps
Channel(s)                       : 2 channels
Sampling rate                    : 44.1 KHz
Resolution                       : 16 bits
Stream size                      : 128 MiB (10%)
Alignment                        : Aligned on interleaves
Interleave, duration             : 26 ms (0.65 video frame)
Interleave, preload duration     : 551 ms
Title                            : Audio
Writing library                  : LAME3.92 
Encoding settings                : -m j -V 4 -q 2 -lowpass 17.5 --abr 128

Text
Format                           : DivX Subtitle
Codec ID                         : DXSB
Codec ID/Info                    : Subtitle in AVI from DivX networks
Width                            : 720 pixels
Height                           : 576 pixels
Resolution                       : 4 bits
Stream size                      : 1.60 MiB (0%)
Title                            : Subtitle - el;02

------------------------------------------------------------------------------- 
http://thepiratebay.org/user/OmifastGR

!